<?xml version="1.0" encoding="UTF-8"?>
<svg width="34px" height="28px" viewBox="0 0 34 28" version="1.1" xmlns="http://www.w3.org/2000/svg" xmlns:xlink="http://www.w3.org/1999/xlink">
    <!-- Generator: Sketch 50.2 (55047) - http://www.bohemiancoding.com/sketch -->
    <title>burger</title>
    <desc>Created with Sketch.</desc>
    <defs></defs>
    <g id="burger" stroke="none" stroke-width="1" fill="none" fill-rule="evenodd">
        <path d="M1.86436204,4.80116861 C1.07225678,4.76332172 0.83085327,4.71609684 0.608652313,4.55566621 C0.0966985646,4.18758009 3.55271368e-15,3.85734085 3.55271368e-15,2.38533128 C3.55271368e-15,1.15848918 0.0192025518,1.02652746 0.222200957,0.743513103 C0.338102073,0.573704491 0.56030303,0.337915017 0.705350877,0.234087266 L0.975901116,0.0358097537 L16.8097767,0.0358097537 L32.6436523,0.0358097537 L32.9042584,0.234087266 C33.5321132,0.686910232 33.5708612,0.800115974 33.5708612,2.44193416 C33.5708612,4.10250832 33.5129107,4.27265186 32.8655104,4.64040306 C32.5658134,4.81021167 31.9379585,4.81958966 17.7078389,4.82896765 C9.53509569,4.83868057 2.40546252,4.82930258 1.86436204,4.80116861 Z" id="Shape" fill="#000000" fill-rule="nonzero" transform="translate(16.785431, 2.434245) scale(-1, 1) rotate(-180.000000) translate(-16.785431, -2.434245) "></path>
        <path d="M1.03385167,16.2969378 C0.541100478,16.1271292 0.212599681,15.8156459 0.0870972887,15.4100478 C0.0291467305,15.2117703 6.59194921e-16,14.5231579 0.0195454545,13.7776077 C0.0483492823,12.343445 0.125845295,12.1451675 0.78284689,11.7677033 C1.11134769,11.5791388 1.28519936,11.5791388 16.8097767,11.5791388 C32.3343541,11.5791388 32.5082057,11.5791388 32.8367065,11.7677033 C33.522512,12.1639234 33.5708612,12.3149761 33.5708612,13.9852632 C33.5708612,15.7027751 33.522512,15.8441148 32.7496093,16.2309569 L32.3244099,16.4386124 L16.8577831,16.4386124 C4.01881978,16.4288995 1.33320574,16.4101435 1.03385167,16.2969378 Z" id="Shape" fill="#000000" fill-rule="nonzero" transform="translate(16.792175, 14.008876) scale(-1, 1) rotate(-180.000000) translate(-16.792175, -14.008876) "></path>
        <path d="M1.0239075,27.9304333 C0.869258373,27.8832084 0.63745614,27.7512467 0.511953748,27.6283281 C0.0579505582,27.2130171 0,26.9866056 0,25.5996678 C0,24.1182802 0.0966985646,23.797419 0.666602871,23.4293328 L0.995103668,23.2122994 L16.8094338,23.2122994 L32.623764,23.2122994 L32.9522648,23.4293328 C33.5417145,23.816175 33.6284689,24.1089022 33.5996651,25.6844046 C33.5708612,27.1942611 33.522512,27.3356008 32.9039155,27.7790458 C32.6433094,27.9773233 32.6333652,27.9773233 16.9736842,27.9960793 C8.32739234,28.0057922 1.17855662,27.9776582 1.0239075,27.9304333 Z" id="Shape" fill="#000000" fill-rule="nonzero" transform="translate(16.802234, 25.605145) scale(-1, 1) rotate(-180.000000) translate(-16.802234, -25.605145) "></path>
    </g>
</svg>