<?xml version="1.0" encoding="UTF-8"?>
<svg width="30px" height="28px" viewBox="0 0 30 28" version="1.1" xmlns="http://www.w3.org/2000/svg" xmlns:xlink="http://www.w3.org/1999/xlink">
    <!-- Generator: Sketch 50.2 (55047) - http://www.bohemiancoding.com/sketch -->
    <title>close</title>
    <desc>Created with Sketch.</desc>
    <defs></defs>
    <g id="close" stroke="none" stroke-width="1" fill="none" fill-rule="evenodd">
        <path d="M-0.135637959,16.7653589 C-0.927743222,16.727512 -1.16914673,16.6802871 -1.39134769,16.5198565 C-1.90330144,16.1517703 -2,15.8215311 -2,14.3495215 C-2,13.1226794 -1.98079745,12.9907177 -1.77779904,12.7077033 C-1.66189793,12.5378947 -1.43969697,12.3021053 -1.29464912,12.1982775 L-1.02409888,12 L14.8097767,12 L30.6436523,12 L30.9042584,12.1982775 C31.5321132,12.6511005 31.5708612,12.7643062 31.5708612,14.4061244 C31.5708612,16.0666986 31.5129107,16.2368421 30.8655104,16.6045933 C30.5658134,16.7744019 29.9379585,16.7837799 15.7078389,16.7931579 C7.53509569,16.8028708 0.40546252,16.7934928 -0.135637959,16.7653589 Z" id="Shape" fill="#000000" fill-rule="nonzero" transform="translate(14.785431, 14.398435) scale(-1, 1) rotate(45.000000) translate(-14.785431, -14.398435) "></path>
        <path d="M-0.135637959,16.7653589 C-0.927743222,16.727512 -1.16914673,16.6802871 -1.39134769,16.5198565 C-1.90330144,16.1517703 -2,15.8215311 -2,14.3495215 C-2,13.1226794 -1.98079745,12.9907177 -1.77779904,12.7077033 C-1.66189793,12.5378947 -1.43969697,12.3021053 -1.29464912,12.1982775 L-1.02409888,12 L14.8097767,12 L30.6436523,12 L30.9042584,12.1982775 C31.5321132,12.6511005 31.5708612,12.7643062 31.5708612,14.4061244 C31.5708612,16.0666986 31.5129107,16.2368421 30.8655104,16.6045933 C30.5658134,16.7744019 29.9379585,16.7837799 15.7078389,16.7931579 C7.53509569,16.8028708 0.40546252,16.7934928 -0.135637959,16.7653589 Z" id="Shape" fill="#000000" fill-rule="nonzero" transform="translate(14.785431, 14.398435) scale(-1, 1) rotate(-45.000000) translate(-14.785431, -14.398435) "></path>
    </g>
</svg>