<?xml version="1.0" encoding="UTF-8"?>
<svg width="49px" height="16px" viewBox="0 0 49 16" version="1.1" xmlns="http://www.w3.org/2000/svg" xmlns:xlink="http://www.w3.org/1999/xlink">
    <!-- Generator: Sketch 50.2 (55047) - http://www.bohemiancoding.com/sketch -->
    <title>Bandcamp-bc-logotype-light Copy</title>
    <desc>Created with Sketch.</desc>
    <defs></defs>
    <g id="Bandcamp-bc-logotype-light-Copy" stroke="none" stroke-width="1" fill="none" fill-rule="evenodd">
        <path d="M31.8853048,10.0182415 C29.8569614,10.0182415 28.8205388,8.41824155 28.8205388,6.00803092 C28.8205388,3.72962319 29.9412604,2.01947826 31.8853048,2.01947826 C34.0837887,2.01947826 34.9081141,4.03571787 34.9081141,6.00803092 C34.9065716,8.06732367 33.8706889,10.0182415 31.8846878,10.0182415 M26.4957221,16 L28.9050692,16 L28.9050692,10.2154976 L28.94772,10.2154976 C29.6029847,11.3108406 30.9766033,11.9903382 32.2026793,11.9903382 C35.6474464,11.9903382 37.3176926,9.27234783 37.3176926,5.96328502 C37.3176926,2.91847729 35.838411,0.0477681159 32.6039672,0.0477681159 C31.1245314,0.0477681159 29.5392784,0.419567923 28.8202303,1.91002899 L28.778505,1.91002899 L28.778505,0.353474783 L26.4954908,0.353474783 L26.4954908,15.9996908 L26.4957221,16" id="path14" fill="#000000" fill-rule="nonzero" transform="translate(31.906592, 8.023884) scale(-1, 1) rotate(-180.000000) translate(-31.906592, -8.023884) "></path>
        <path d="M46.2039482,11.9022995 C46.0135235,13.2828599 45.0415013,14.0283671 43.7098394,14.0283671 C42.4622451,14.0283671 40.7082398,13.348715 40.7082398,9.90833623 C40.7082398,8.02364444 41.5111241,6.0291401 43.6040993,6.0291401 C44.9988505,6.0291401 45.9707184,6.99453527 46.2039482,8.61618551 L48.6132182,8.61618551 C48.1691252,5.67983768 46.4152742,4.0581256 43.6040993,4.0581256 C40.1797707,4.0581256 38.2988156,6.57763092 38.2988156,9.90833623 C38.2988156,13.3265314 40.0954717,16 43.6886297,16 C46.2248494,16 48.3813767,14.685372 48.6132182,11.9022995 L46.2077274,11.9022995 L46.2039482,11.9022995" id="path16" fill="#000000" fill-rule="nonzero" transform="translate(43.456017, 10.029063) scale(-1, 1) rotate(-180.000000) translate(-43.456017, -10.029063) "></path>
        <polyline id="path18" fill="#000000" fill-rule="nonzero" transform="translate(13.255689, 7.853956) scale(-1, 1) rotate(-180.000000) translate(-13.255689, -7.853956) " points="18.0719155 0.0477681159 -1.77635684e-15 0.0477681159 8.43923191 15.6601445 26.5113788 15.6601445 18.0719155 0.0477681159"></polyline>
    </g>
</svg>