<?xml version="1.0" encoding="UTF-8"?>
<svg width="424px" height="426px" viewBox="0 0 424 426" version="1.1" xmlns="http://www.w3.org/2000/svg" xmlns:xlink="http://www.w3.org/1999/xlink">
    <!-- Generator: Sketch 50.2 (55047) - http://www.bohemiancoding.com/sketch -->
    <title>ITunes_logo Copy</title>
    <desc>Created with Sketch.</desc>
    <defs></defs>
    <g id="ITunes_logo-Copy" stroke="none" stroke-width="1" fill="none" fill-rule="evenodd">
        <path d="M88.94,385.507 C-5.827,317.031 -27.401,184.374 40.752,89.207 C108.901,-5.958 240.979,-27.596 335.748,40.88 C430.515,109.353 452.09,242.01 383.941,337.18 C315.787,432.345 183.713,453.983 88.94,385.507 Z M287.626,314.353 C301.01,310.428 310.46,300.908 314.327,287.461 L315.468,283.509 L315.618,177.494 C315.729,98.101 315.622,70.985 315.181,69.505 C314.717,67.936 313.981,66.62 313.018,65.58 C311.601,64.707 309.898,64.247 307.968,64.25 C306.638,64.25 302.017,64.891 297.707,65.675 C278.638,69.147 166.239,91.533 164.319,92.243 C161.349,93.341 158.407,95.95 157.011,98.719 L155.828,101.065 C155.828,101.065 155.269,267.236 154.408,269.106 C153.099,271.953 150.192,274.65 147.512,275.509 C146.242,275.918 141.223,277.044 136.351,278.012 C113.799,282.5 105.424,285.733 98.339,292.689 C94.315,296.638 91.335,302.03 90.047,307.687 C88.815,313.095 89.227,321.187 90.982,326.108 C92.821,331.254 95.781,335.649 99.651,339.107 C103.169,341.818 107.322,343.836 111.991,345.034 C122.314,347.677 141.641,344.737 151.521,339.022 C155.653,336.631 160.968,331.619 163.732,327.496 C164.828,325.863 166.472,322.579 167.393,320.192 C170.611,311.834 170.712,162.971 171.123,161.096 C171.821,157.914 173.996,155.585 176.993,154.794 C179.694,154.085 287.923,132.687 290.97,132.26 C293.65,131.888 296.18,132.751 297.562,134.453 C298.382,134.893 299.074,135.486 299.559,136.216 C300.438,137.525 300.491,140.113 300.622,187.244 C300.772,241.491 300.839,240.219 297.89,243.643 C295.744,246.132 293.068,247.097 282.067,249.341 C265.33,252.758 259.603,254.381 253.192,257.508 C245.189,261.419 240.744,265.702 237.309,272.816 C234.88,277.849 233.973,281.621 233.98,286.629 C233.994,295.588 237.085,302.585 244.055,309.436 C244.698,310.067 245.328,310.654 245.964,311.206 C249.475,313.921 253.056,315.558 257.558,316.595 C264.348,318.158 278.168,317.129 287.626,314.353 Z" id="Combined-Shape" fill="#000000" fill-rule="nonzero"></path>
    </g>
</svg>