<?xml version="1.0" encoding="UTF-8"?>
<svg width="24px" height="24px" viewBox="0 0 24 24" version="1.1" xmlns="http://www.w3.org/2000/svg" xmlns:xlink="http://www.w3.org/1999/xlink">
    <!-- Generator: Sketch 50.2 (55047) - http://www.bohemiancoding.com/sketch -->
    <title>Songkick_logo Copy</title>
    <desc>Created with Sketch.</desc>
    <defs></defs>
    <g id="Songkick_logo-Copy" stroke="none" stroke-width="1" fill="none" fill-rule="evenodd">
        <path d="M20.6865672,2.61492537 C19.0746269,1.41492537 17.2835821,0.608955224 15.0447761,0.232835821 L15.0447761,10.9432836 L18.2507463,6.46567164 L21.761194,6.46567164 L17.7313433,12.1074627 C17.7313433,12.1074627 18.6626866,13.5940299 19.2179104,14.4716418 C19.7910448,15.3671642 20.3283582,15.6 21.1522388,15.6 C21.4029851,15.6 21.4029851,15.6 21.7074627,15.6 L21.7074627,18.3761194 L20.8477612,18.3761194 C19.0746269,18.3761194 18,18.0537313 17.1940299,16.8179104 C16.6925373,16.0298507 15.0447761,13.4328358 15.0447761,13.4328358 L15.0447761,18.358209 L12.1074627,18.358209 L12.1074627,0 C12.0716418,0 12.0358209,0 12,0 C8.20298507,0 5.5880597,0.913432836 3.31343284,2.61492537 C0.0537313433,5.06865672 0.179104478,8.32835821 0.179104478,11.8208955 C0.179104478,15.3134328 0.0537313433,18.5910448 3.31343284,21.0268657 C5.5880597,22.7283582 8.20298507,23.641791 12,23.641791 C15.7970149,23.641791 18.4119403,22.7283582 20.6865672,21.0268657 C23.9462687,18.5731343 23.8208955,15.3134328 23.8208955,11.8208955 C23.8208955,8.32835821 23.9462687,5.06865672 20.6865672,2.61492537 M6.62686567,18.5014925 C4.8,18.5014925 3.31343284,18.161194 2.09552239,16.9253731 L3.9761194,15.0447761 C4.60298507,15.6716418 5.67761194,15.8865672 6.64477612,15.8865672 C7.80895522,15.8865672 8.3641791,15.4925373 8.3641791,14.8119403 C8.3641791,14.5253731 8.29253731,14.2925373 8.13134328,14.1134328 C7.9880597,13.9701493 7.73731343,13.8447761 7.34328358,13.7910448 L5.89253731,13.5940299 C4.8358209,13.4328358 4.02985075,13.0746269 3.49253731,12.519403 C2.93731343,11.9462687 2.66865672,11.1402985 2.66865672,10.119403 C2.66865672,7.93432836 4.31641791,6.34029851 7.02089552,6.34029851 C8.74029851,6.34029851 10.0298507,6.73432836 11.0507463,7.77313433 L9.20597015,9.61791045 C8.45373134,8.86567164 7.46865672,8.91940299 6.94925373,8.91940299 C5.92835821,8.91940299 5.49850746,9.51044776 5.49850746,10.0298507 C5.49850746,10.1731343 5.55223881,10.4059701 5.73134328,10.5850746 C5.87462687,10.7283582 6.12537313,10.8895522 6.55522388,10.9432836 L7.9880597,11.1402985 C9.06268657,11.2835821 9.83283582,11.6238806 10.3343284,12.1253731 C10.9791045,12.7522388 11.2298507,13.6298507 11.2298507,14.7402985 C11.2477612,17.1761194 9.15223881,18.5014925 6.62686567,18.5014925" id="Shape" fill="#000000" fill-rule="nonzero"></path>
    </g>
</svg>