<?xml version="1.0" encoding="UTF-8"?>
<svg width="292px" height="147px" viewBox="0 0 292 147" version="1.1" xmlns="http://www.w3.org/2000/svg" xmlns:xlink="http://www.w3.org/1999/xlink">
    <!-- Generator: Sketch 50.2 (55047) - http://www.bohemiancoding.com/sketch -->
    <title>soundcloud-svgrepo-com</title>
    <desc>Created with Sketch.</desc>
    <defs></defs>
    <g id="soundcloud-svgrepo-com" stroke="none" stroke-width="1" fill="none" fill-rule="evenodd">
        <path d="M72.83,146.485 L91.037,146.485 L91.037,31.832 C84.209,33.762 78.055,37.267 72.83,41.873 C72.83,41.874 72.83,146.485 72.83,146.485 Z M36.415,68.921 L36.415,146.357 L37.589,146.484 L54.622,146.484 L54.622,68.802 L37.589,68.802 C37.589,68.803 36.415,68.921 36.415,68.921 Z M0,107.63 C0,121.732 7.338,133.958 18.207,140.777 L18.207,74.52 C7.338,81.329 0,93.556 0,107.63 Z M109.245,146.485 L127.452,146.485 L127.452,36.885 C122.008,33.489 115.845,31.25 109.245,30.385 L109.245,146.485 Z M253.73,68.803 L243.488,68.803 C244.007,65.635 244.335,62.421 244.335,59.098 C244.335,26.916 219.09,0.834 187.947,0.834 C171.051,0.834 155.993,8.609 145.66,20.789 L145.66,146.484 L253.73,146.484 C274.477,146.484 291.319,129.096 291.319,107.629 C291.319,86.182 274.477,68.803 253.73,68.803 Z" id="Shape" fill="#000000" fill-rule="nonzero"></path>
    </g>
</svg>