<?xml version="1.0" encoding="UTF-8"?>
<svg width="36px" height="36px" viewBox="0 0 36 36" version="1.1" xmlns="http://www.w3.org/2000/svg" xmlns:xlink="http://www.w3.org/1999/xlink">
    <!-- Generator: Sketch 50.2 (55047) - http://www.bohemiancoding.com/sketch -->
    <title>spotify-svgrepo-com copy</title>
    <desc>Created with Sketch.</desc>
    <defs></defs>
    <g id="spotify-svgrepo-com-copy" stroke="none" stroke-width="1" fill="none" fill-rule="evenodd">
        <path d="M17.9993143,35.9990857 C8.05874286,35.9990857 0,27.9403429 0,17.9997714 C0,8.05782857 8.05874286,0.000914285714 17.9993143,0.000914285714 C27.9394286,0.000914285714 36,8.05782857 36,17.9997714 C36,27.9403429 27.9394286,35.9990857 17.9993143,35.9990857 Z M29.8926857,12.9235429 C25.8310857,10.5380571 20.2685714,9.45154286 14.9848,9.45154286 C11.8700571,9.45154286 9.00742857,9.80331429 6.43977143,10.5594286 C5.78742857,10.7524571 5.18182857,11.3009143 5.18182857,12.2780571 C5.18182857,13.2395429 5.91828571,13.9989714 6.8776,13.9989714 C7.21017143,13.9989714 7.53862857,13.8667429 7.8016,13.8022857 C10.0728,13.1861714 12.5512,12.9377143 14.9916571,12.9377143 C19.8808,12.9377143 24.9358857,14.0131429 28.1952,15.9664 C28.5382857,16.1539429 28.756,16.2432 29.1205714,16.2432 C30.0299429,16.2432 30.8181714,15.5392 30.82,14.5584 C30.82,13.7008 30.4393143,13.2341714 29.8926857,12.9235429 Z M25.3325714,24.2273143 C22.3125714,22.4154286 18.8030857,21.5110857 14.8650286,21.5110857 C12.5654857,21.5110857 10.3514286,21.8006857 8.12697143,22.308 C7.58354286,22.4117714 7.14937143,22.7888 7.14937143,23.5444571 C7.14937143,24.1340571 7.60308571,24.6756571 8.28742857,24.6756571 C8.50925714,24.6756571 8.87885714,24.5630857 9.17394286,24.4986286 C10.9876571,24.1217143 12.9262857,23.8750857 14.8525714,23.8750857 C18.3030857,23.8750857 21.5568,24.7044571 24.1656,26.2821714 C24.4373714,26.4482286 24.6354286,26.5484571 24.9267429,26.5484571 C25.5181714,26.5484571 26.0456,26.0731429 26.0456,25.4226286 C26.0457143,24.7561143 25.7826286,24.4881143 25.3325714,24.2273143 Z M27.4697143,18.9539429 C23.8870857,16.8099429 19.3286857,15.6356571 14.6165714,15.6356571 C11.6093714,15.6356571 9.54354286,16.0648 7.51942857,16.6205714 C6.77245714,16.8314286 6.40057143,17.3584 6.40057143,18.1233143 C6.40057143,18.9041143 7.03325714,19.5349714 7.80674286,19.5349714 C8.13382857,19.5349714 8.33051429,19.4310857 8.68228571,19.3328 C10.3102857,18.9004571 12.2777143,18.5808 14.5576,18.5808 C18.9997714,18.5808 23.0577143,19.7349714 25.9867429,21.4717714 C26.2530286,21.6273143 26.4977143,21.7846857 26.8888,21.7846857 C27.6715429,21.7846857 28.2917714,21.1557714 28.2917714,20.3766857 C28.2916571,19.7366857 28.0698286,19.2988571 27.4697143,18.9539429 Z" id="Combined-Shape" fill="#000000" fill-rule="nonzero"></path>
    </g>
</svg>