<?xml version="1.0" encoding="UTF-8"?>
<svg width="24px" height="20px" viewBox="0 0 24 20" version="1.1" xmlns="http://www.w3.org/2000/svg" xmlns:xlink="http://www.w3.org/1999/xlink">
    <!-- Generator: Sketch 50.2 (55047) - http://www.bohemiancoding.com/sketch -->
    <title>path3611</title>
    <desc>Created with Sketch.</desc>
    <defs></defs>
    <g id="Symbols" stroke="none" stroke-width="1" fill="none" fill-rule="evenodd">
        <g id="Twitter_Bird" fill="#000000" fill-rule="nonzero">
            <g id="Twitter_Bird-Copy">
                <path d="M21.557717,5.48226698 C21.557717,5.26964131 21.5533761,5.057975 21.5438163,4.84726564 C22.505265,4.15384182 23.3409537,3.28849788 24,2.30343248 C23.1177513,2.69468098 22.1683027,2.95806787 21.1722924,3.07683158 C22.1889426,2.46864749 22.9694297,1.5065699 23.3375937,0.359641654 C22.3862242,0.922330591 21.332614,1.33129843 20.2108429,1.55206345 C19.3122742,0.597168255 18.0330616,0 16.6165682,0 C13.8973414,0 11.6921993,2.19999453 11.6921993,4.91191517 C11.6921993,5.29741631 11.7353992,5.67238371 11.8198808,6.03202457 C7.7273614,5.82658369 4.09852428,3.87177864 1.67018141,0.899344379 C1.24729666,1.6253328 1.0034551,2.46864749 1.0034551,3.36847075 C1.0034551,5.07282026 1.87274298,6.57747465 3.1946756,7.45766385 C2.38682851,7.43276212 1.62794061,7.21151662 0.964573497,6.84325513 C0.963848665,6.86386623 0.963848665,6.88396069 0.963848665,6.90598914 C0.963848665,9.28508537 2.66114604,11.2714973 4.91428814,11.7216479 C4.50052419,11.8341862 4.06515945,11.894525 3.61587551,11.894525 C3.29907236,11.894525 2.9904292,11.8634171 2.69042684,11.8059323 C3.31731235,13.7578641 5.1350897,15.1782341 7.29031182,15.2179827 C5.60501444,16.5358709 3.48195393,17.3207631 1.17457184,17.3207631 C0.777607092,17.3207631 0.385443949,17.2982365 0,17.2527606 C2.17922211,18.646315 4.76692736,19.4594595 7.54807338,19.4594595 C16.6050289,19.4594595 21.557717,11.9735417 21.557717,5.48226698 Z" id="path3611"></path>
            </g>
        </g>
    </g>
</svg>