<?xml version="1.0" encoding="UTF-8"?>
<svg width="35px" height="24px" viewBox="0 0 35 24" version="1.1" xmlns="http://www.w3.org/2000/svg" xmlns:xlink="http://www.w3.org/1999/xlink">
    <!-- Generator: Sketch 50.2 (55047) - http://www.bohemiancoding.com/sketch -->
    <title>YouTube_Logo_2017 Copy</title>
    <desc>Created with Sketch.</desc>
    <defs></defs>
    <g id="YouTube_Logo_2017-Copy" stroke="none" stroke-width="1" fill="none" fill-rule="evenodd">
        <path d="M33.5717647,3.75529412 C34.3058824,6.43764706 34.2776471,12.0282353 34.2776471,12.0282353 C34.2776471,12.0282353 34.2776471,17.5905882 33.5717647,20.2729412 C33.1764706,21.7411765 32.0188235,22.8988235 30.5505882,23.2941176 C27.8682353,24 17.1388235,24 17.1388235,24 C17.1388235,24 6.43764706,24 3.72705882,23.2658824 C2.25882353,22.8705882 1.10117647,21.7129412 0.705882353,20.2447059 C0,17.5905882 0,12 0,12 C0,12 0,6.43764706 0.705882353,3.75529412 C1.10117647,2.28705882 2.28705882,1.10117647 3.72705882,0.705882353 C6.40941176,0 17.1388235,0 17.1388235,0 C17.1388235,0 27.8682353,0 30.5505882,0.734117647 C32.0188235,1.12941176 33.1764706,2.28705882 33.5717647,3.75529412 Z M13.7223529,17.1388235 L22.6447059,12 L13.7223529,6.86117647 L13.7223529,17.1388235 Z" id="Combined-Shape" fill="#000000" fill-rule="nonzero"></path>
    </g>
</svg>